<svg xmlns="http://www.w3.org/2000/svg" viewBox="0 0 100 100" fill="none" shape-rendering="auto" aria-hidden="true"><!-- Generated by DiceBear (https://www.dicebear.com) --><metadata xmlns:rdf="http://www.w3.org/1999/02/22-rdf-syntax-ns#" xmlns:xsi="http://www.w3.org/2001/XMLSchema-instance" xmlns:dc="http://purl.org/dc/elements/1.1/" xmlns:dcterms="http://purl.org/dc/terms/"><rdf:RDF><rdf:Description><dc:title>Critters</dc:title><dc:creator>DiceBear</dc:creator><dc:source xsi:type="dcterms:URI">https://www.dicebear.com</dc:source><dcterms:license xsi:type="dcterms:URI">https://creativecommons.org/publicdomain/zero/1.0/</dcterms:license><dc:rights>“Critters” (https://www.dicebear.com) by “DiceBear”, licensed under “CC0 1.0” (https://creativecommons.org/publicdomain/zero/1.0/)</dc:rights></rdf:Description></rdf:RDF></metadata><defs><g id="top-horns-b7b68827"><g opacity=".15" transform="translate(-23 -6.5)"><path d="M36 50c0-20-4-32-10-40 12 4 20 16 20 40Zm28 0c0-20 4-32 10-40-12 4-20 16-20 40Z" fill="#1e293b"/></g><path d="M10 40C10 20 6 8 0 0c12 4 20 16 20 40Zm28 0c0-20 4-32 10-40-12 4-20 16-20 40Z" fill="#c4b5fd"/></g><clipPath id="dbcrb-blob"><path d="M14 106V64c0-12 4-24 12-28 6-3 6-10 14-12 6-2 8 3 12 2s3-4 10-3c8 1 6 9 12 13 8 5 12 16 12 28v42Z"/></clipPath><g id="body-blob-b7b68827"><g class="dbcr-t"><use transform="translate(26 2)" href="#top-horns-b7b68827"/></g><path d="M17 109.5v-42c0-12 4-24 12-28 6-3 6-10 14-12 6-2 8 3 12 2s3-4 10-3c8 1 6 9 12 13 8 5 12 16 12 28v42Z" fill="#1e293b" opacity=".15"/><path d="M14 106V64c0-12 4-24 12-28 6-3 6-10 14-12 6-2 8 3 12 2s3-4 10-3c8 1 6 9 12 13 8 5 12 16 12 28v42Z" fill="#fca5a5"/><g clip-path="url(#dbcrb-blob)"><path d="M14 106V64c0-12 4-24 12-28 6-3 6-10 14-12 6-2 8 3 12 2s3-4 10-3c8 1 6 9 12 13 8 5 12 16 12 28v42Zm3.5 4.5v-42c0-12 4-24 12-28 6-3 6-10 14-12 6-2 8 3 12 2s3-4 10-3c8 1 6 9 12 13 8 5 12 16 12 28v42Z" fill="#ffffff" opacity=".16" fill-rule="evenodd"/><path d="M14 106V64c0-12 4-24 12-28 6-3 6-10 14-12 6-2 8 3 12 2s3-4 10-3c8 1 6 9 12 13 8 5 12 16 12 28v42Zm-3.5-4.5v-42c0-12 4-24 12-28 6-3 6-10 14-12 6-2 8 3 12 2s3-4 10-3c8 1 6 9 12 13 8 5 12 16 12 28v42Z" fill="#1e293b" opacity=".1" fill-rule="evenodd"/></g></g><g id="eyes-inward-b7b68827"><g class="dbcr-eb"><circle cx="10" cy="13" r="7" fill="#ffffff"/><circle cx="13" cy="14" r="3" fill="#1e293b"/></g><g class="dbcr-eb"><circle cx="36" cy="13" r="7" fill="#ffffff"/><circle cx="33" cy="14" r="3" fill="#1e293b"/></g></g><g id="mouth-slant-b7b68827"><path d="m6 9 16-4" stroke="#1e293b" stroke-width="3.5" stroke-linecap="round" stroke-linejoin="round"/></g><g id="animation-none-b7b68827"></g><clipPath id="clip-b7b68827"><rect width="100" height="100" rx="0" ry="0"/></clipPath></defs><g clip-path="url(#clip-b7b68827)"><rect width="100" height="100" fill="#0f766e"/><g class="dbcr-c"><use href="#body-blob-b7b68827"/><use transform="translate(27 36)" href="#eyes-inward-b7b68827"/><use transform="translate(36 60)" href="#mouth-slant-b7b68827"/></g><use href="#animation-none-b7b68827"/></g></svg>