<svg xmlns="http://www.w3.org/2000/svg" viewBox="0 0 100 100" fill="none" shape-rendering="auto" aria-hidden="true"><!-- Generated by DiceBear (https://www.dicebear.com) --><metadata xmlns:rdf="http://www.w3.org/1999/02/22-rdf-syntax-ns#" xmlns:xsi="http://www.w3.org/2001/XMLSchema-instance" xmlns:dc="http://purl.org/dc/elements/1.1/" xmlns:dcterms="http://purl.org/dc/terms/"><rdf:RDF><rdf:Description><dc:title>Critters</dc:title><dc:creator>DiceBear</dc:creator><dc:source xsi:type="dcterms:URI">https://www.dicebear.com</dc:source><dcterms:license xsi:type="dcterms:URI">https://creativecommons.org/publicdomain/zero/1.0/</dcterms:license><dc:rights>“Critters” (https://www.dicebear.com) by “DiceBear”, licensed under “CC0 1.0” (https://creativecommons.org/publicdomain/zero/1.0/)</dc:rights></rdf:Description></rdf:RDF></metadata><defs><g id="top-spikes-acb1f9a8"><g opacity=".15" transform="translate(-23 -6.5)"><path d="m38 50 4-32 4 30Zm8-2 4-36 4 36Zm8 0 4-30 4 32Z" fill="#1e293b"/></g><path d="m12 40 4-32 4 30Zm8-2 4-36 4 36Zm8 0 4-30 4 32Z" fill="#f0abfc"/></g><clipPath id="dbcrb-lean"><path d="M78 106V64c0-30-10-44-24-42-22 2-32 18-32 78v6Z"/></clipPath><g id="body-lean-acb1f9a8"><g class="dbcr-t"><use transform="translate(26 2)" href="#top-spikes-acb1f9a8"/></g><path d="M81 109.5v-42c0-30-10-44-24-42-22 2-32 18-32 78v6Z" fill="#1e293b" opacity=".15"/><path d="M78 106V64c0-30-10-44-24-42-22 2-32 18-32 78v6Z" fill="#fdba74"/><g clip-path="url(#dbcrb-lean)"><path d="M78 106V64c0-30-10-44-24-42-22 2-32 18-32 78v6Zm3.5 4.5v-42c0-30-10-44-24-42-22 2-32 18-32 78v6Z" fill="#ffffff" opacity=".16" fill-rule="evenodd"/><path d="M78 106V64c0-30-10-44-24-42-22 2-32 18-32 78v6Zm-3.5-4.5v-42c0-30-10-44-24-42-22 2-32 18-32 78v6Z" fill="#1e293b" opacity=".1" fill-rule="evenodd"/></g></g><g id="eyes-angry-acb1f9a8"><g class="dbcr-eb"><circle cx="10" cy="13" r="7" fill="#ffffff"/><circle cx="10" cy="13" r="3" fill="#1e293b"/><path d="m3 4 14 5" stroke="#1e293b" stroke-width="3.5" stroke-linecap="round" stroke-linejoin="round"/></g><g class="dbcr-eb"><circle cx="36" cy="13" r="7" fill="#ffffff"/><circle cx="36" cy="13" r="3" fill="#1e293b"/><path d="M43 4 29 9" stroke="#1e293b" stroke-width="3.5" stroke-linecap="round" stroke-linejoin="round"/></g></g><g id="mouth-smile-acb1f9a8"><path d="M4 4q10 10 20 0" stroke="#1e293b" stroke-width="3.5" stroke-linecap="round" stroke-linejoin="round"/></g><g id="animation-none-acb1f9a8"></g><clipPath id="clip-acb1f9a8"><rect width="100" height="100" rx="0" ry="0"/></clipPath></defs><g clip-path="url(#clip-acb1f9a8)"><rect width="100" height="100" fill="#be123c"/><g class="dbcr-c"><use href="#body-lean-acb1f9a8"/><use transform="translate(27 36)" href="#eyes-angry-acb1f9a8"/><use transform="translate(36 60)" href="#mouth-smile-acb1f9a8"/></g><use href="#animation-none-acb1f9a8"/></g></svg>