<svg xmlns="http://www.w3.org/2000/svg" viewBox="0 0 100 100" fill="none" shape-rendering="auto" aria-hidden="true"><!-- Generated by DiceBear (https://www.dicebear.com) --><metadata xmlns:rdf="http://www.w3.org/1999/02/22-rdf-syntax-ns#" xmlns:xsi="http://www.w3.org/2001/XMLSchema-instance" xmlns:dc="http://purl.org/dc/elements/1.1/" xmlns:dcterms="http://purl.org/dc/terms/"><rdf:RDF><rdf:Description><dc:title>Critters</dc:title><dc:creator>DiceBear</dc:creator><dc:source xsi:type="dcterms:URI">https://www.dicebear.com</dc:source><dcterms:license xsi:type="dcterms:URI">https://creativecommons.org/publicdomain/zero/1.0/</dcterms:license><dc:rights>“Critters” (https://www.dicebear.com) by “DiceBear”, licensed under “CC0 1.0” (https://creativecommons.org/publicdomain/zero/1.0/)</dc:rights></rdf:Description></rdf:RDF></metadata><defs><g id="top-crown-1eb968e3"><g opacity=".15" transform="translate(-23 -6.5)"><path d="M38 50V32l5-8 4 6 3-8 3 8 4-6 5 8v18Z" fill="#1e293b"/></g><path d="M12 40V22l5-8 4 6 3-8 3 8 4-6 5 8v18Z" fill="#fcd34d"/></g><clipPath id="dbcrb-wedge"><path d="M20 106v-6l10-70q1-6 8-6h24q7 0 8 6l10 70v6Z"/></clipPath><g id="body-wedge-1eb968e3"><g class="dbcr-t"><use transform="translate(26 2)" href="#top-crown-1eb968e3"/></g><path d="M23 109.5v-6l10-70q1-6 8-6h24q7 0 8 6l10 70v6Z" fill="#1e293b" opacity=".15"/><path d="M20 106v-6l10-70q1-6 8-6h24q7 0 8 6l10 70v6Z" fill="#7dd3fc"/><g clip-path="url(#dbcrb-wedge)"><path d="M20 106v-6l10-70q1-6 8-6h24q7 0 8 6l10 70v6Zm3.5 4.5v-6l10-70q1-6 8-6h24q7 0 8 6l10 70v6Z" fill="#ffffff" opacity=".16" fill-rule="evenodd"/><path d="M20 106v-6l10-70q1-6 8-6h24q7 0 8 6l10 70v6Zm-3.5-4.5v-6l10-70q1-6 8-6h24q7 0 8 6l10 70v6Z" fill="#1e293b" opacity=".1" fill-rule="evenodd"/></g></g><g id="eyes-sideeye-1eb968e3"><g class="dbcr-eb"><circle cx="10" cy="13" r="7" fill="#ffffff"/><circle cx="13.5" cy="13" r="3" fill="#1e293b"/></g><g class="dbcr-eb"><circle cx="36" cy="13" r="7" fill="#ffffff"/><circle cx="39.5" cy="13" r="3" fill="#1e293b"/></g></g><g id="mouth-catMouth-1eb968e3"><path d="M6 6q4 4 8 0 4 4 8 0" stroke="#1e293b" stroke-width="3" stroke-linecap="round" stroke-linejoin="round"/></g><g id="animation-none-1eb968e3"></g><clipPath id="clip-1eb968e3"><rect width="100" height="100" rx="0" ry="0"/></clipPath></defs><g clip-path="url(#clip-1eb968e3)"><rect width="100" height="100" fill="#be185d"/><g class="dbcr-c"><use href="#body-wedge-1eb968e3"/><use transform="translate(27 36)" href="#eyes-sideeye-1eb968e3"/><use transform="translate(36 60)" href="#mouth-catMouth-1eb968e3"/></g><use href="#animation-none-1eb968e3"/></g></svg>